<svg width="24" height="24" viewBox="0 0 24 24" fill="none" xmlns="http://www.w3.org/2000/svg">
<path fill-rule="evenodd" clip-rule="evenodd" d="M11.9993 22.0001C16.8353 22.0001 20.7563 18.1161 20.7563 13.3251C20.7563 8.5351 16.8363 4.6511 11.9993 4.6511C7.16232 4.6511 3.24232 8.5341 3.24232 13.3251C3.24232 18.1161 7.16232 22.0001 11.9993 22.0001ZM11.9993 8.7471C12.4023 8.7471 12.7293 9.0711 12.7293 9.4701V13.0261L14.9473 15.2241C15.0147 15.291 15.0683 15.3706 15.1048 15.4583C15.1413 15.546 15.1601 15.6401 15.1601 15.7351C15.1601 15.8301 15.1413 15.9242 15.1048 16.0119C15.0683 16.0996 15.0147 16.1792 14.9473 16.2461C14.8098 16.3817 14.6244 16.4577 14.4313 16.4577C14.2382 16.4577 14.0528 16.3817 13.9153 16.2461L11.4833 13.8361C11.4158 13.7694 11.3621 13.69 11.3254 13.6025C11.2887 13.5149 11.2696 13.421 11.2693 13.3261V9.4701C11.2693 9.0701 11.5963 8.7471 11.9993 8.7471ZM8.23932 2.3401C8.2899 2.42061 8.32403 2.51034 8.33975 2.60411C8.35546 2.69789 8.35244 2.79384 8.33087 2.88644C8.30931 2.97904 8.26961 3.06646 8.21407 3.14363C8.15854 3.22081 8.08827 3.28622 8.00732 3.3361L4.11632 5.7461C3.95211 5.84786 3.75441 5.88079 3.56608 5.83773C3.37776 5.79467 3.214 5.67911 3.11032 5.5161C3.05975 5.43559 3.02561 5.34585 3.0099 5.25208C2.99419 5.15831 2.9972 5.06235 3.01877 4.96975C3.04034 4.87715 3.08004 4.78974 3.13557 4.71256C3.1911 4.63538 3.26137 4.56997 3.34232 4.5201L7.23432 2.1101C7.39853 2.00833 7.59624 1.97541 7.78457 2.01847C7.97289 2.06152 8.13665 2.17709 8.24032 2.3401M15.7593 2.3401C15.863 2.17736 16.0266 2.06199 16.2146 2.01894C16.4027 1.9759 16.6002 2.00865 16.7643 2.1101L20.6563 4.5201C20.7373 4.56997 20.8075 4.63538 20.8631 4.71256C20.9186 4.78974 20.9583 4.87715 20.9799 4.96975C21.0014 5.06235 21.0045 5.15831 20.9887 5.25208C20.973 5.34585 20.9389 5.43559 20.8883 5.5161C20.7846 5.67911 20.6209 5.79467 20.4326 5.83773C20.2442 5.88079 20.0465 5.84786 19.8823 5.7461L15.9913 3.3361C15.9103 3.2863 15.8399 3.22095 15.7843 3.14381C15.7287 3.06667 15.6889 2.97927 15.6672 2.88667C15.6455 2.79406 15.6424 2.69808 15.6581 2.60427C15.6737 2.51045 15.7078 2.42067 15.7583 2.3401" fill="white"/>
</svg>
