<svg width="150" height="150" viewBox="0 0 150 150" fill="none" xmlns="http://www.w3.org/2000/svg">
<path fill-rule="evenodd" clip-rule="evenodd" d="M129.919 97.5286C121.114 119.211 99.8427 134.5 75 134.5C50.1573 134.5 28.8855 119.211 20.0811 97.5286C9.15519 95.9885 0.75 86.6008 0.75 75.25C0.75 63.8992 9.15519 54.5115 20.0811 52.9714C28.8855 31.2892 50.1573 16 75 16C99.8427 16 121.114 31.2892 129.919 52.9714C140.845 54.5115 149.25 63.8992 149.25 75.25C149.25 86.6008 140.845 95.9885 129.919 97.5286Z" fill="#F4F4F7"/>
<path fill-rule="evenodd" clip-rule="evenodd" d="M129.919 97.5286C121.114 119.211 99.8427 134.5 75 134.5C50.1573 134.5 28.8855 119.211 20.0811 97.5286C9.15519 95.9885 0.75 86.6008 0.75 75.25C0.75 63.8992 9.15519 54.5115 20.0811 52.9714C28.8855 31.2892 50.1573 16 75 16C99.8427 16 121.114 31.2892 129.919 52.9714C140.845 54.5115 149.25 63.8992 149.25 75.25C149.25 86.6008 140.845 95.9885 129.919 97.5286Z" fill="#F4F4F7"/>
<path d="M60.75 113C58.8935 113 57.113 112.283 55.8003 111.007C54.4875 109.73 53.75 107.999 53.75 106.194C53.75 101.657 60.75 94 60.75 94C60.75 94 67.75 101.657 67.75 106.194C67.75 107.999 67.0125 109.73 65.6997 111.007C64.387 112.283 62.6065 113 60.75 113Z" fill="#DAE7F6"/>
<path fill-rule="evenodd" clip-rule="evenodd" d="M51.6639 55.8541C48.2132 57.2384 44.4456 58 40.5002 58C33.0605 58 26.2534 55.2919 21.0107 50.8078C30.3193 30.279 50.9922 16 75.0002 16C99.0082 16 119.681 30.279 128.99 50.8078C123.747 55.2919 116.94 58 109.5 58C105.555 58 101.787 57.2384 98.3365 55.8541C92.8367 62.6529 84.4261 67 75.0002 67C65.5743 67 57.1637 62.6529 51.6639 55.8541Z" fill="#D1D0D4"/>
<circle cx="60.75" cy="85" r="4.5" fill="#D1D0D4"/>
<circle cx="89.25" cy="85" r="4.5" fill="#D1D0D4"/>
</svg>