<svg width="150" height="150" viewBox="0 0 150 150" fill="none" xmlns="http://www.w3.org/2000/svg">
<path fill-rule="evenodd" clip-rule="evenodd" d="M129.919 97.2786C121.114 118.961 99.8427 134.25 75 134.25C50.1573 134.25 28.8855 118.961 20.0811 97.2786C9.15519 95.7385 0.75 86.3508 0.75 75C0.75 63.6492 9.15519 54.2615 20.0811 52.7214C28.8855 31.0392 50.1573 15.75 75 15.75C99.8427 15.75 121.114 31.0392 129.919 52.7214C140.845 54.2615 149.25 63.6492 149.25 75C149.25 86.3508 140.845 95.7385 129.919 97.2786Z" fill="#F4F4F7"/>
<path fill-rule="evenodd" clip-rule="evenodd" d="M129.919 97.2786C121.114 118.961 99.8427 134.25 75 134.25C50.1573 134.25 28.8855 118.961 20.0811 97.2786C9.15519 95.7385 0.75 86.3508 0.75 75C0.75 63.6492 9.15519 54.2615 20.0811 52.7214C28.8855 31.0392 50.1573 15.75 75 15.75C99.8427 15.75 121.114 31.0392 129.919 52.7214C140.845 54.2615 149.25 63.6492 149.25 75C149.25 86.3508 140.845 95.7385 129.919 97.2786Z" fill="#F4F4F7"/>
<path fill-rule="evenodd" clip-rule="evenodd" d="M51.6639 55.6041C48.2132 56.9884 44.4456 57.75 40.5002 57.75C33.0605 57.75 26.2534 55.0419 21.0107 50.5578C30.3193 30.029 50.9922 15.75 75.0002 15.75C99.0082 15.75 119.681 30.029 128.99 50.5578C123.747 55.0419 116.94 57.75 109.5 57.75C105.555 57.75 101.787 56.9884 98.3365 55.6041C92.8367 62.4029 84.4261 66.75 75.0002 66.75C65.5743 66.75 57.1637 62.4029 51.6639 55.6041Z" fill="#D1D0D4"/>
<path d="M65.25 97.5C65.25 98.7804 65.5022 100.048 65.9922 101.231C66.4822 102.414 67.2003 103.489 68.1057 104.394C69.0111 105.3 70.0859 106.018 71.2688 106.508C72.4518 106.998 73.7196 107.25 75 107.25C76.2804 107.25 77.5482 106.998 78.7312 106.508C79.9141 106.018 80.9889 105.3 81.8943 104.394C82.7997 103.489 83.5178 102.414 84.0078 101.231C84.4978 100.048 84.75 98.7804 84.75 97.5L75 97.5L65.25 97.5Z" fill="#D1D0D4"/>
<circle cx="60.75" cy="84.75" r="4.5" fill="#D1D0D4"/>
<circle cx="89.25" cy="84.75" r="4.5" fill="#D1D0D4"/>
</svg>