<svg width="24" height="25" viewBox="0 0 24 25" fill="none" xmlns="http://www.w3.org/2000/svg">
<path d="M8.35206 20.7186C8.78721 21.2688 9.34171 21.713 9.97367 22.0175C10.6056 22.3221 11.2985 22.479 12.0001 22.4766C12.7016 22.479 13.3945 22.3221 14.0264 22.0175C14.6584 21.713 15.2129 21.2688 15.6481 20.7186C13.2271 21.0462 10.773 21.0462 8.35206 20.7186ZM18.7501 9.47656V10.1806C18.7501 11.0256 18.9901 11.8516 19.4421 12.5546L20.5501 14.2776C21.5611 15.8516 20.7891 17.9906 19.0301 18.4876C14.4338 19.7892 9.56635 19.7892 4.97006 18.4876C3.21106 17.9906 2.43906 15.8516 3.45006 14.2776L4.55806 12.5546C5.01128 11.8458 5.25178 11.0219 5.25106 10.1806V9.47656C5.25106 5.61056 8.27306 2.47656 12.0001 2.47656C15.7271 2.47656 18.7501 5.61056 18.7501 9.47656Z" fill="#1C1C1E"/>
</svg>
