<svg width="34" height="35" viewBox="0 0 34 35" fill="none" xmlns="http://www.w3.org/2000/svg">
<path d="M33.3307 21.9435C32.2419 25.2523 30.1552 28.1475 27.0706 30.6291C24.1673 33.1108 21.1734 34.3516 18.0887 34.3516C13.9153 34.1861 9.83268 32.3663 5.84075 28.892C2.03026 25.4177 0.125 21.6126 0.125 17.4766C0.125 15.4913 0.760072 13.7541 2.03023 12.2652C3.48185 10.7762 5.47781 9.28721 8.01813 7.79824C9.6512 6.80559 10.4678 6.30927 10.4678 6.30927C10.8307 5.97839 11.6472 5.2339 12.9173 4.07581C14.1875 2.91772 15.3669 2.09052 16.4557 1.59419C17.7258 0.93243 18.9053 0.601562 19.994 0.601562C21.627 0.601562 23.3508 1.1806 25.1653 2.33869C27.5242 3.66222 29.5202 6.06112 31.1532 9.53538C32.9677 12.8442 33.875 15.9876 33.875 18.9655C33.875 19.6273 33.6936 20.6199 33.3307 21.9435Z" fill="#1C1C1E"/>
</svg>
