<svg width="24" height="24" viewBox="0 0 24 24" fill="none" xmlns="http://www.w3.org/2000/svg">
<path opacity="0.5" d="M12 22C7.286 22 4.929 22 3.464 20.535C2 19.072 2 16.714 2 12C2 7.286 2 4.929 3.464 3.464C4.93 2 7.286 2 12 2C16.714 2 19.071 2 20.535 3.464C22 4.93 22 7.286 22 12C22 16.714 22 19.071 20.535 20.535C19.072 22 16.714 22 12 22Z" fill="#B3B4B9"/>
<path d="M9.286 8.75C7.283 8.75 5.75 10.253 5.75 12C5.75 13.747 7.283 15.25 9.286 15.25C9.797 15.25 10.281 15.15 10.716 14.973C10.9002 14.8978 11.1067 14.8989 11.2901 14.976C11.4735 15.053 11.6188 15.1998 11.694 15.384C11.7692 15.5682 11.7681 15.7747 11.6911 15.9581C11.614 16.1415 11.4672 16.2868 11.283 16.362C10.6486 16.6191 9.97048 16.7508 9.286 16.75C6.554 16.75 4.25 14.671 4.25 12C4.25 9.329 6.554 7.25 9.286 7.25C9.97048 7.24917 10.6486 7.38093 11.283 7.638C11.4673 7.71306 11.6143 7.85827 11.6916 8.04168C11.7688 8.22509 11.7701 8.43168 11.695 8.616C11.6199 8.80033 11.4747 8.94729 11.2913 9.02455C11.1079 9.10182 10.9013 9.10306 10.717 9.028C10.2624 8.84385 9.77647 8.74945 9.286 8.75ZM17.286 8.75C15.283 8.75 13.75 10.253 13.75 12C13.75 13.747 15.283 15.25 17.286 15.25C17.797 15.25 18.281 15.15 18.716 14.973C18.9002 14.8978 19.1067 14.8989 19.2901 14.976C19.4735 15.053 19.6188 15.1998 19.694 15.384C19.7692 15.5682 19.7681 15.7747 19.691 15.9581C19.614 16.1415 19.4672 16.2868 19.283 16.362C18.6486 16.6191 17.9705 16.7508 17.286 16.75C14.554 16.75 12.25 14.671 12.25 12C12.25 9.329 14.554 7.25 17.286 7.25C17.9705 7.24917 18.6486 7.38093 19.283 7.638C19.4673 7.71306 19.6143 7.85827 19.6916 8.04168C19.7688 8.22509 19.7701 8.43168 19.695 8.616C19.6199 8.80033 19.4747 8.94729 19.2913 9.02455C19.1079 9.10182 18.9013 9.10306 18.717 9.028C18.2624 8.84385 17.7765 8.74945 17.286 8.75Z" fill="#B3B4B9"/>
</svg>
