<svg width="20" height="20" viewBox="0 0 20 20" fill="none" xmlns="http://www.w3.org/2000/svg">
<path d="M13.3585 8.35838C13.4199 8.30116 13.4692 8.23216 13.5033 8.1555C13.5375 8.07883 13.5559 7.99607 13.5574 7.91215C13.5588 7.82823 13.5434 7.74487 13.512 7.66705C13.4805 7.58923 13.4337 7.51853 13.3744 7.45918C13.315 7.39983 13.2444 7.35305 13.1665 7.32161C13.0887 7.29018 13.0053 7.27474 12.9214 7.27622C12.8375 7.2777 12.7547 7.29607 12.6781 7.33023C12.6014 7.36439 12.5324 7.41364 12.4752 7.47505L8.7502 11.2L7.5252 9.97505C7.40672 9.86465 7.25001 9.80454 7.0881 9.8074C6.92618 9.81026 6.77169 9.87585 6.65718 9.99036C6.54267 10.1049 6.47708 10.2594 6.47422 10.4213C6.47136 10.5832 6.53146 10.7399 6.64186 10.8584L8.30853 12.525C8.42572 12.6421 8.58457 12.7078 8.7502 12.7078C8.91582 12.7078 9.07468 12.6421 9.19186 12.525L13.3585 8.35838Z" fill="#E4E5EA"/>
<path fill-rule="evenodd" clip-rule="evenodd" d="M10.0473 1.04175H9.95234C8.02817 1.04175 6.52067 1.04175 5.344 1.20008C4.14067 1.36175 3.19067 1.70008 2.44484 2.44508C1.699 3.19091 1.3615 4.14091 1.19984 5.34508C1.0415 6.52091 1.0415 8.02841 1.0415 9.95258V10.0476C1.0415 11.9717 1.0415 13.4792 1.19984 14.6559C1.3615 15.8592 1.69984 16.8092 2.44484 17.5551C3.19067 18.3009 4.14067 18.6384 5.34484 18.8001C6.52067 18.9584 8.02817 18.9584 9.95234 18.9584H10.0473C11.9715 18.9584 13.479 18.9584 14.6557 18.8001C15.859 18.6384 16.809 18.3001 17.5548 17.5551C18.3007 16.8092 18.6382 15.8592 18.7998 14.6551C18.9582 13.4792 18.9582 11.9717 18.9582 10.0476V9.95258C18.9582 8.02841 18.9582 6.52091 18.7998 5.34425C18.6382 4.14091 18.2998 3.19091 17.5548 2.44508C16.809 1.69925 15.859 1.36175 14.6548 1.20008C13.479 1.04175 11.9715 1.04175 10.0473 1.04175ZM3.329 3.32925C3.804 2.85425 4.44567 2.58175 5.5115 2.43841C6.59484 2.29341 8.01817 2.29175 9.99984 2.29175C11.9815 2.29175 13.4048 2.29341 14.4882 2.43841C15.554 2.58175 16.1965 2.85508 16.6715 3.32925C17.1457 3.80425 17.4182 4.44591 17.5615 5.51175C17.7065 6.59508 17.7082 8.01841 17.7082 10.0001C17.7082 11.9817 17.7065 13.4051 17.5615 14.4884C17.4182 15.5542 17.1448 16.1967 16.6707 16.6717C16.1957 17.1459 15.554 17.4184 14.4882 17.5617C13.4048 17.7067 11.9815 17.7084 9.99984 17.7084C8.01817 17.7084 6.59484 17.7067 5.5115 17.5617C4.44567 17.4184 3.80317 17.1451 3.32817 16.6709C2.854 16.1959 2.5815 15.5542 2.43817 14.4884C2.29317 13.4051 2.2915 11.9817 2.2915 10.0001C2.2915 8.01841 2.29317 6.59508 2.43817 5.51175C2.5815 4.44591 2.85484 3.80425 3.329 3.32925Z" fill="#E4E5EA"/>
</svg>