<svg width="20" height="20" viewBox="0 0 20 20" fill="none" xmlns="http://www.w3.org/2000/svg">
<path fill-rule="evenodd" clip-rule="evenodd" d="M9.99984 18.3334C6.0715 18.3334 4.10734 18.3334 2.8865 17.1126C1.6665 15.8934 1.6665 13.9284 1.6665 10.0001C1.6665 6.07175 1.6665 4.10758 2.8865 2.88675C4.10817 1.66675 6.0715 1.66675 9.99984 1.66675C13.9282 1.66675 15.8923 1.66675 17.1123 2.88675C18.3332 4.10841 18.3332 6.07175 18.3332 10.0001C18.3332 13.9284 18.3332 15.8926 17.1123 17.1126C15.8932 18.3334 13.9282 18.3334 9.99984 18.3334ZM13.3582 7.47508C13.4752 7.59227 13.541 7.75112 13.541 7.91675C13.541 8.08237 13.4752 8.24123 13.3582 8.35841L9.1915 12.5251C9.07432 12.6421 8.91546 12.7079 8.74984 12.7079C8.58421 12.7079 8.42536 12.6421 8.30817 12.5251L6.6415 10.8584C6.5801 10.8012 6.53085 10.7322 6.49669 10.6555C6.46253 10.5789 6.44416 10.4961 6.44268 10.4122C6.4412 10.3283 6.45663 10.2449 6.48807 10.1671C6.5195 10.0893 6.56629 10.0186 6.62564 9.95922C6.68499 9.89987 6.75568 9.85308 6.83351 9.82165C6.91133 9.79021 6.99469 9.77477 7.07861 9.77625C7.16252 9.77774 7.24529 9.7961 7.32195 9.83026C7.39862 9.86442 7.46762 9.91368 7.52484 9.97508L8.74984 11.2001L12.4748 7.47508C12.592 7.35804 12.7509 7.2923 12.9165 7.2923C13.0821 7.2923 13.241 7.35804 13.3582 7.47508Z" fill="#1C1C1E"/>
</svg>