<svg width="16" height="16" viewBox="0 0 16 16" fill="none" xmlns="http://www.w3.org/2000/svg">
<g clip-path="url(#clip0_192_5379)">
<path d="M8.00016 4.16675C8.13277 4.16675 8.25995 4.21943 8.35372 4.31319C8.44748 4.40696 8.50016 4.53414 8.50016 4.66675V8.66675C8.50016 8.79936 8.44748 8.92653 8.35372 9.0203C8.25995 9.11407 8.13277 9.16675 8.00016 9.16675C7.86755 9.16675 7.74038 9.11407 7.64661 9.0203C7.55284 8.92653 7.50016 8.79936 7.50016 8.66675V4.66675C7.50016 4.53414 7.55284 4.40696 7.64661 4.31319C7.74038 4.21943 7.86755 4.16675 8.00016 4.16675ZM8.00016 11.3334C8.17697 11.3334 8.34654 11.2632 8.47157 11.1382C8.59659 11.0131 8.66683 10.8436 8.66683 10.6667C8.66683 10.4899 8.59659 10.3204 8.47157 10.1953C8.34654 10.0703 8.17697 10.0001 8.00016 10.0001C7.82335 10.0001 7.65378 10.0703 7.52876 10.1953C7.40373 10.3204 7.3335 10.4899 7.3335 10.6667C7.3335 10.8436 7.40373 11.0131 7.52876 11.1382C7.65378 11.2632 7.82335 11.3334 8.00016 11.3334Z" fill="#F04438"/>
<path fill-rule="evenodd" clip-rule="evenodd" d="M0.833496 7.99992C0.833496 4.04192 4.04216 0.833252 8.00016 0.833252C11.9582 0.833252 15.1668 4.04192 15.1668 7.99992C15.1668 11.9579 11.9582 15.1666 8.00016 15.1666C4.04216 15.1666 0.833496 11.9579 0.833496 7.99992ZM8.00016 1.83325C6.36466 1.83325 4.79615 2.48295 3.63967 3.63943C2.4832 4.7959 1.8335 6.36442 1.8335 7.99992C1.8335 9.63542 2.4832 11.2039 3.63967 12.3604C4.79615 13.5169 6.36466 14.1666 8.00016 14.1666C9.63566 14.1666 11.2042 13.5169 12.3607 12.3604C13.5171 11.2039 14.1668 9.63542 14.1668 7.99992C14.1668 6.36442 13.5171 4.7959 12.3607 3.63943C11.2042 2.48295 9.63566 1.83325 8.00016 1.83325Z" fill="#F04438"/>
</g>
<defs>
<clipPath id="clip0_192_5379">
<rect width="16" height="16" fill="white"/>
</clipPath>
</defs>
</svg>