<svg width="16" height="16" viewBox="0 0 16 16" fill="none" xmlns="http://www.w3.org/2000/svg">
<g clip-path="url(#clip0_192_5386)">
<path d="M10.6867 6.68661C10.7359 6.64083 10.7753 6.58563 10.8026 6.5243C10.8299 6.46297 10.8446 6.39676 10.8458 6.32962C10.847 6.26249 10.8346 6.1958 10.8095 6.13354C10.7843 6.07128 10.7469 6.01473 10.6994 5.96725C10.6519 5.91977 10.5954 5.88234 10.5331 5.85719C10.4709 5.83204 10.4042 5.81969 10.337 5.82088C10.2699 5.82206 10.2037 5.83676 10.1424 5.86409C10.081 5.89141 10.0258 5.93082 9.98006 5.97994L7.00006 8.95994L6.02006 7.97994C5.92528 7.89162 5.79991 7.84354 5.67038 7.84582C5.54084 7.84811 5.41725 7.90058 5.32565 7.99219C5.23404 8.0838 5.18156 8.20739 5.17928 8.33693C5.17699 8.46646 5.22507 8.59182 5.31339 8.68661L6.64673 10.0199C6.74048 10.1136 6.86756 10.1662 7.00006 10.1662C7.13256 10.1662 7.25964 10.1136 7.35339 10.0199L10.6867 6.68661Z" fill="#12B76A"/>
<path fill-rule="evenodd" clip-rule="evenodd" d="M8.00016 0.833252C4.04216 0.833252 0.833496 4.04192 0.833496 7.99992C0.833496 11.9579 4.04216 15.1666 8.00016 15.1666C11.9582 15.1666 15.1668 11.9579 15.1668 7.99992C15.1668 4.04192 11.9582 0.833252 8.00016 0.833252ZM1.8335 7.99992C1.8335 6.36442 2.4832 4.7959 3.63967 3.63943C4.79615 2.48295 6.36466 1.83325 8.00016 1.83325C9.63566 1.83325 11.2042 2.48295 12.3607 3.63943C13.5171 4.7959 14.1668 6.36442 14.1668 7.99992C14.1668 9.63542 13.5171 11.2039 12.3607 12.3604C11.2042 13.5169 9.63566 14.1666 8.00016 14.1666C6.36466 14.1666 4.79615 13.5169 3.63967 12.3604C2.4832 11.2039 1.8335 9.63542 1.8335 7.99992Z" fill="#12B76A"/>
</g>
<defs>
<clipPath id="clip0_192_5386">
<rect width="16" height="16" fill="white"/>
</clipPath>
</defs>
</svg>