<svg width="16" height="17" viewBox="0 0 16 17" fill="none" xmlns="http://www.w3.org/2000/svg">
<path d="M8.65882 4.30168C8.91498 4.15638 9.11583 3.93036 9.23001 3.65889C9.3442 3.38743 9.36529 3.08581 9.29001 2.80109C9.21473 2.51638 9.04731 2.2646 8.81387 2.08505C8.58043 1.90551 8.29412 1.8083 7.99962 1.80859C7.70513 1.80889 7.41901 1.90668 7.18594 2.0867C6.95287 2.26673 6.78596 2.51884 6.71125 2.80371C6.63655 3.08858 6.65826 3.39016 6.773 3.66139C6.88773 3.93262 7.08904 4.15823 7.34549 4.30301L7.33882 4.31501C6.90216 5.22634 6.29549 6.53168 5.35882 7.02168C4.58949 7.42368 3.48549 7.22168 2.66549 7.07101C2.65234 6.88455 2.58718 6.70551 2.47743 6.5542C2.36767 6.4029 2.2177 6.28538 2.04454 6.21499C1.87138 6.1446 1.68195 6.12416 1.49776 6.15597C1.31356 6.18779 1.14197 6.2706 1.00246 6.395C0.862939 6.5194 0.761082 6.68041 0.708442 6.85977C0.655801 7.03912 0.654485 7.22964 0.704642 7.40971C0.754799 7.58978 0.854421 7.75218 0.992205 7.8785C1.12999 8.00482 1.30042 8.08998 1.48416 8.12434L3.44949 13.1977C3.59524 13.5738 3.85131 13.897 4.18409 14.125C4.51686 14.353 4.91079 14.475 5.31416 14.475H10.6875C11.0909 14.475 11.4848 14.353 11.8176 14.125C12.1503 13.897 12.4064 13.5738 12.5522 13.1977L14.5168 8.12434C14.6994 8.09036 14.8689 8.00621 15.0064 7.88132C15.1438 7.75642 15.2438 7.59572 15.295 7.41722C15.3463 7.23872 15.3468 7.04947 15.2966 6.87068C15.2463 6.69189 15.1473 6.53062 15.0105 6.40495C14.8738 6.27928 14.7048 6.19417 14.5224 6.15916C14.34 6.12414 14.1515 6.14061 13.9779 6.20671C13.8044 6.27282 13.6526 6.38594 13.5398 6.53342C13.4269 6.68089 13.3573 6.85688 13.3388 7.04168C12.4995 7.15034 11.4175 7.28901 10.6428 6.88434C9.72482 6.40434 9.10949 5.18901 8.65882 4.30168Z" fill="#FEE987"/>
</svg>
