<svg width="24" height="24" viewBox="0 0 24 24" fill="none" xmlns="http://www.w3.org/2000/svg">
<path d="M16.9754 19.4999C18.7325 18.3363 20.0256 16.5929 20.6292 14.5737C21.2328 12.5544 21.1086 10.3874 20.2783 8.45034C19.448 6.51327 17.9642 4.92902 16.0856 3.97374C14.2071 3.01847 12.0528 2.75276 9.99838 3.22293M16.9754 19.4999V15.9999M16.9754 19.4999H20.4984M6.99838 4.51593C5.24729 5.68384 3.96092 7.42855 3.36298 9.44667C2.76504 11.4648 2.89335 13.6286 3.7256 15.562C4.55785 17.4953 6.04139 19.0757 7.91824 20.0285C9.79508 20.9813 11.9465 21.2461 13.9984 20.7769M6.99838 4.51593V7.99993M6.99838 4.51593H3.49838" stroke="#fff" stroke-width="1.5" stroke-linecap="round" stroke-linejoin="round"/>
</svg>
