<svg width="37" height="36" viewBox="0 0 37 36" fill="none" xmlns="http://www.w3.org/2000/svg">
<path opacity="0.5" d="M5.33203 12C5.33203 7.758 5.33203 5.6355 6.65053 4.3185C7.96753 3 10.09 3 14.332 3H23.332C27.574 3 29.6965 3 31.0135 4.3185C32.332 5.6355 32.332 7.758 32.332 12V24C32.332 28.242 32.332 30.3645 31.0135 31.6815C29.6965 33 27.574 33 23.332 33H14.332C10.09 33 7.96753 33 6.65053 31.6815C5.33203 30.3645 5.33203 28.242 5.33203 24V12Z" fill="#B0DDC1"/>
<path fill-rule="evenodd" clip-rule="evenodd" d="M13.957 3.01953V33.0195H11.707V3.01953H13.957ZM2.70703 12.0015C2.70703 11.7032 2.82556 11.417 3.03654 11.206C3.24751 10.9951 3.53366 10.8765 3.83203 10.8765H6.83203C7.1304 10.8765 7.41655 10.9951 7.62753 11.206C7.8385 11.417 7.95703 11.7032 7.95703 12.0015C7.95703 12.2999 7.8385 12.586 7.62753 12.797C7.41655 13.008 7.1304 13.1265 6.83203 13.1265H3.83203C3.53366 13.1265 3.24751 13.008 3.03654 12.797C2.82556 12.586 2.70703 12.2999 2.70703 12.0015ZM2.70703 18.0015C2.70703 17.7032 2.82556 17.417 3.03654 17.206C3.24751 16.9951 3.53366 16.8765 3.83203 16.8765H6.83203C7.1304 16.8765 7.41655 16.9951 7.62753 17.206C7.8385 17.417 7.95703 17.7032 7.95703 18.0015C7.95703 18.2999 7.8385 18.586 7.62753 18.797C7.41655 19.008 7.1304 19.1265 6.83203 19.1265H3.83203C3.53366 19.1265 3.24751 19.008 3.03654 18.797C2.82556 18.586 2.70703 18.2999 2.70703 18.0015ZM2.70703 24.0015C2.70703 23.7032 2.82556 23.417 3.03654 23.206C3.24751 22.9951 3.53366 22.8765 3.83203 22.8765H6.83203C7.1304 22.8765 7.41655 22.9951 7.62753 23.206C7.8385 23.417 7.95703 23.7032 7.95703 24.0015C7.95703 24.2999 7.8385 24.586 7.62753 24.797C7.41655 25.008 7.1304 25.1265 6.83203 25.1265H3.83203C3.53366 25.1265 3.24751 25.008 3.03654 24.797C2.82556 24.586 2.70703 24.2999 2.70703 24.0015Z" fill="#B0DDC1"/>
<path d="M16.957 9.75C16.957 9.45163 17.0756 9.16548 17.2865 8.9545C17.4975 8.74353 17.7837 8.625 18.082 8.625H25.582C25.8804 8.625 26.1665 8.74353 26.3775 8.9545C26.5885 9.16548 26.707 9.45163 26.707 9.75C26.707 10.0484 26.5885 10.3345 26.3775 10.5455C26.1665 10.7565 25.8804 10.875 25.582 10.875H18.082C17.7837 10.875 17.4975 10.7565 17.2865 10.5455C17.0756 10.3345 16.957 10.0484 16.957 9.75ZM16.957 15C16.957 14.7016 17.0756 14.4155 17.2865 14.2045C17.4975 13.9935 17.7837 13.875 18.082 13.875H25.582C25.8804 13.875 26.1665 13.9935 26.3775 14.2045C26.5885 14.4155 26.707 14.7016 26.707 15C26.707 15.2984 26.5885 15.5845 26.3775 15.7955C26.1665 16.0065 25.8804 16.125 25.582 16.125H18.082C17.7837 16.125 17.4975 16.0065 17.2865 15.7955C17.0756 15.5845 16.957 15.2984 16.957 15Z" fill="#B0DDC1"/>
</svg>
