<svg width="24" height="25" viewBox="0 0 24 25" fill="none" xmlns="http://www.w3.org/2000/svg">
<g clip-path="url(#clip0_1008_13625)">
<path fill-rule="evenodd" clip-rule="evenodd" d="M12.5912 23.733L12.5802 23.735L12.5092 23.77L12.4892 23.774L12.4752 23.77L12.4042 23.735C12.3936 23.7317 12.3856 23.7334 12.3802 23.74L12.3762 23.75L12.3592 24.178L12.3642 24.198L12.3742 24.211L12.4782 24.285L12.4932 24.289L12.5052 24.285L12.6092 24.211L12.6212 24.195L12.6252 24.178L12.6082 23.751C12.6056 23.7404 12.5999 23.7344 12.5912 23.733ZM12.8562 23.62L12.8432 23.622L12.6582 23.715L12.6482 23.725L12.6452 23.736L12.6632 24.166L12.6682 24.178L12.6762 24.185L12.8772 24.278C12.8899 24.2814 12.8996 24.2787 12.9062 24.27L12.9102 24.256L12.8762 23.642C12.8729 23.63 12.8662 23.6227 12.8562 23.62ZM12.1412 23.622C12.1368 23.6194 12.1315 23.6185 12.1265 23.6196C12.1215 23.6207 12.1171 23.6238 12.1142 23.628L12.1082 23.642L12.0742 24.256C12.0749 24.268 12.0806 24.276 12.0912 24.28L12.1062 24.278L12.3072 24.185L12.3172 24.177L12.3212 24.166L12.3382 23.736L12.3352 23.724L12.3252 23.714L12.1412 23.622Z" fill="#E4E5EA"/>
<path fill-rule="evenodd" clip-rule="evenodd" d="M14.1349 3.4751L12.2579 5.3521C11.7193 5.89026 11.4055 6.61308 11.38 7.37404C11.3546 8.135 11.6194 8.87717 12.1209 9.4501L12.2559 9.5941L14.3759 11.7161C14.8187 12.1599 15.3894 12.4538 16.0078 12.5566C16.6263 12.6594 17.2614 12.5658 17.8239 12.2891L17.9989 12.1951V19.4751H19.9989C20.2538 19.4754 20.4989 19.573 20.6843 19.7479C20.8696 19.9229 20.9811 20.1621 20.9961 20.4165C21.011 20.6709 20.9282 20.9215 20.7646 21.1169C20.601 21.3124 20.369 21.438 20.1159 21.4681L19.9989 21.4751H3.99889C3.74401 21.4748 3.49886 21.3772 3.31352 21.2022C3.12819 21.0273 3.01666 20.7881 3.00172 20.5337C2.98678 20.2793 3.06957 20.0287 3.23316 19.8333C3.39675 19.6378 3.6288 19.5122 3.88189 19.4821L3.99889 19.4751V5.4751C3.99873 4.97052 4.1893 4.48453 4.53239 4.11455C4.87548 3.74457 5.34574 3.51794 5.84889 3.4801L5.99889 3.4751H14.1349ZM13.4989 13.4751C13.1011 13.4751 12.7195 13.6331 12.4382 13.9144C12.1569 14.1957 11.9989 14.5773 11.9989 14.9751C11.9989 15.3729 12.1569 15.7545 12.4382 16.0358C12.7195 16.3171 13.1011 16.4751 13.4989 16.4751C13.8967 16.4751 14.2782 16.3171 14.5596 16.0358C14.8409 15.7545 14.9989 15.3729 14.9989 14.9751C14.9989 14.5773 14.8409 14.1957 14.5596 13.9144C14.2782 13.6331 13.8967 13.4751 13.4989 13.4751ZM15.7919 4.6471C15.9718 4.46775 16.2133 4.36362 16.4673 4.35587C16.7212 4.34811 16.9686 4.43731 17.1592 4.60535C17.3497 4.77338 17.4692 5.00765 17.4933 5.26057C17.5174 5.5135 17.4443 5.76611 17.2889 5.9671L17.2059 6.0611L16.7929 6.4731H19.9989C20.2552 6.47135 20.5025 6.5681 20.6895 6.74338C20.8766 6.91867 20.9891 7.15909 21.004 7.415C21.0189 7.67091 20.935 7.92276 20.7695 8.11855C20.604 8.31434 20.3697 8.43911 20.1149 8.4671L19.9989 8.4731H16.7889L17.2049 8.8901C17.3825 9.07043 17.4851 9.31139 17.492 9.5644C17.499 9.81741 17.4097 10.0636 17.2423 10.2534C17.0748 10.4432 16.8416 10.5624 16.5897 10.5871C16.3378 10.6117 16.0859 10.5399 15.8849 10.3861L15.7899 10.3031L13.6699 8.1801C13.4979 8.00778 13.3946 7.77861 13.3795 7.53559C13.3644 7.29257 13.4385 7.05238 13.5879 6.8601L13.6709 6.7661L15.7909 4.6461L15.7919 4.6471Z" fill="#E4E5EA"/>
</g>
<defs>
<clipPath id="clip0_1008_13625">
<rect width="24" height="24" fill="white" transform="translate(0 0.475098)"/>
</clipPath>
</defs>
</svg>
