<svg width="25" height="24" viewBox="0 0 25 24" fill="none" xmlns="http://www.w3.org/2000/svg">
<path opacity="0.5" d="M9 2H8C5.171 2 3.758 2 2.879 2.879C2 3.758 2 5.172 2 8V16C2 18.829 2 20.243 2.879 21.122C3.757 22 5.171 22 7.998 22H9C11.828 22 13.242 22 14.121 21.121C15 20.243 15 18.828 15 16V8C15 5.172 15 3.757 14.121 2.879C13.242 2.001 11.828 2 9 2Z" fill="#FEE987"/>
<path fill-rule="evenodd" clip-rule="evenodd" d="M7.5 11.9989C7.5 11.8 7.57902 11.6092 7.71967 11.4686C7.86032 11.3279 8.05109 11.2489 8.25 11.2489H20.223L18.262 9.5689C18.1871 9.50481 18.1256 9.42661 18.081 9.33876C18.0364 9.25091 18.0095 9.15513 18.0019 9.05688C17.9865 8.85847 18.0506 8.66207 18.18 8.5109C18.3094 8.35973 18.4936 8.26616 18.692 8.25078C18.8904 8.2354 19.0868 8.29947 19.238 8.4289L22.738 11.4289C22.8203 11.4993 22.8864 11.5867 22.9318 11.6851C22.9771 11.7835 23.0006 11.8906 23.0006 11.9989C23.0006 12.1072 22.9771 12.2143 22.9318 12.3127C22.8864 12.4111 22.8203 12.4985 22.738 12.5689L19.238 15.5689C19.0868 15.6983 18.8904 15.7624 18.692 15.747C18.4936 15.7316 18.3094 15.6381 18.18 15.4869C18.0506 15.3357 17.9865 15.1393 18.0019 14.9409C18.0173 14.7425 18.1108 14.5583 18.262 14.4289L20.222 12.7489H8.251C8.05209 12.7489 7.86132 12.6699 7.72067 12.5292C7.58002 12.3886 7.5 12.1978 7.5 11.9989Z" fill="#FEE987"/>
</svg>
