<svg width="37" height="36" viewBox="0 0 37 36" fill="none" xmlns="http://www.w3.org/2000/svg">
<path opacity="0.4" d="M23 13.5C25.4853 13.5 27.5 11.4853 27.5 9C27.5 6.51472 25.4853 4.5 23 4.5C20.5147 4.5 18.5 6.51472 18.5 9C18.5 11.4853 20.5147 13.5 23 13.5Z" fill="#8EB9E6"/>
<path opacity="0.4" d="M24.5 30C28.6421 30 32 27.9853 32 25.5C32 23.0147 28.6421 21 24.5 21C20.3579 21 17 23.0147 17 25.5C17 27.9853 20.3579 30 24.5 30Z" fill="#8EB9E6"/>
<path d="M14 15C17.3137 15 20 12.3137 20 9C20 5.68629 17.3137 3 14 3C10.6863 3 8 5.68629 8 9C8 12.3137 10.6863 15 14 15Z" fill="#8EB9E6"/>
<path d="M14 31.5C19.799 31.5 24.5 28.8137 24.5 25.5C24.5 22.1863 19.799 19.5 14 19.5C8.20101 19.5 3.5 22.1863 3.5 25.5C3.5 28.8137 8.20101 31.5 14 31.5Z" fill="#8EB9E6"/>
</svg>
