<svg width="24" height="24" viewBox="0 0 24 24" fill="none" xmlns="http://www.w3.org/2000/svg">
<path fill-rule="evenodd" clip-rule="evenodd" d="M3.464 3.464C2 4.93 2 7.286 2 12C2 16.714 2 19.071 3.464 20.535C4.93 22 7.286 22 12 22C16.714 22 19.071 22 20.535 20.535C22 19.072 22 16.714 22 12C22 7.286 22 4.929 20.535 3.464C19.072 2 16.714 2 12 2C7.286 2 4.929 2 3.464 3.464ZM16 10C16.5304 10 17.0391 9.78929 17.4142 9.41421C17.7893 9.03914 18 8.53043 18 8C18 7.46957 17.7893 6.96086 17.4142 6.58579C17.0391 6.21071 16.5304 6 16 6C15.4696 6 14.9609 6.21071 14.5858 6.58579C14.2107 6.96086 14 7.46957 14 8C14 8.53043 14.2107 9.03914 14.5858 9.41421C14.9609 9.78929 15.4696 10 16 10ZM6.32 13.104C6.61988 12.8253 7.01786 12.6765 7.42705 12.6902C7.83624 12.7038 8.2234 12.8789 8.504 13.177L11.152 15.987C11.538 16.397 12.0613 16.6506 12.6223 16.6997C13.1833 16.7487 13.7427 16.5897 14.194 16.253C14.4911 16.032 14.8568 15.9231 15.2265 15.9456C15.5961 15.9681 15.9459 16.1206 16.214 16.376L18.482 18.542C18.6269 18.6731 18.8172 18.7426 19.0124 18.7355C19.2077 18.7284 19.3925 18.6454 19.5275 18.5042C19.6625 18.3629 19.7371 18.1745 19.7353 17.9791C19.7335 17.7838 19.6556 17.5968 19.518 17.458L17.25 15.29C16.7255 14.7898 16.0409 14.4913 15.3174 14.4474C14.5939 14.4035 13.8782 14.6169 13.297 15.05C13.1405 15.1665 12.9466 15.2215 12.7523 15.2043C12.5579 15.1872 12.3767 15.0991 12.243 14.957L9.596 12.147C9.04383 11.5609 8.28227 11.2169 7.47747 11.1901C6.67267 11.1633 5.88993 11.4559 5.3 12.004L4.49 12.756C4.34413 12.8913 4.25797 13.0789 4.25047 13.2777C4.24297 13.4765 4.31474 13.6701 4.45 13.816C4.58526 13.9619 4.77293 14.048 4.97172 14.0555C5.1705 14.063 5.36413 13.9913 5.51 13.856L6.32 13.104Z" fill="#1C1C1E"/>
</svg>
