<svg width="24" height="24" viewBox="0 0 24 24" fill="none" xmlns="http://www.w3.org/2000/svg">
<path opacity="0.5" d="M2 9.13738C2 14.0004 6.02 16.5914 8.962 18.9114C10 19.7294 11 20.5004 12 20.5004C13 20.5004 14 19.7304 15.038 18.9104C17.981 16.5924 22 14.0004 22 9.13838C22 4.27638 16.5 0.825382 12 5.50138C7.5 0.825382 2 4.27438 2 9.13738Z" fill="#FEC7C6"/>
<path d="M16.5 13.2872C14.025 10.5712 11 12.5752 11 15.3992C11 17.9592 12.814 19.4342 14.358 20.6912L14.402 20.7272L14.829 21.0772C15.4 21.5522 15.95 22.0002 16.5 22.0002C17.05 22.0002 17.6 21.5522 18.171 21.0772C19.789 19.7302 22 18.2242 22 15.3992C22 14.4722 21.674 13.6322 21.147 13.0192C20.072 11.7682 18.162 11.4632 16.5 13.2872Z" fill="#FEC7C6"/>
</svg>
