<svg width="24" height="24" viewBox="0 0 24 24" fill="none" xmlns="http://www.w3.org/2000/svg">
<path fill-rule="evenodd" clip-rule="evenodd" d="M7.23748 4.42944C7.3123 4.49357 7.37375 4.57181 7.41832 4.6597C7.46289 4.74759 7.4897 4.8434 7.49722 4.94166C7.50475 5.03991 7.49283 5.13869 7.46216 5.23234C7.43149 5.32599 7.38267 5.41267 7.31848 5.48744L1.73748 11.9994L7.31848 18.5114C7.38638 18.5856 7.43868 18.6726 7.47227 18.7674C7.50586 18.8622 7.52005 18.9627 7.514 19.0631C7.50795 19.1635 7.48178 19.2616 7.43705 19.3516C7.39232 19.4417 7.32994 19.5218 7.25362 19.5873C7.1773 19.6527 7.08859 19.7022 6.99278 19.7326C6.89697 19.7631 6.79601 19.774 6.6959 19.7647C6.59578 19.7554 6.49857 19.7261 6.41002 19.6784C6.32148 19.6308 6.24342 19.5659 6.18048 19.4874L0.180477 12.4874C0.0640136 12.3515 0 12.1784 0 11.9994C0 11.8205 0.0640136 11.6474 0.180477 11.5114L6.18048 4.51144C6.30996 4.36063 6.49402 4.26738 6.69221 4.25219C6.89041 4.23701 7.08653 4.30112 7.23748 4.43044" fill="#1C1C1E"/>
</svg>