<svg width="100%" height="100%" viewBox="0 0 200 40" fill="none" xmlns="http://www.w3.org/2000/svg">
<path d="M171.551 22.4101C172.37 21.654 173.221 21.2759 174.103 21.2759C175.048 21.2759 175.804 21.7485 176.371 22.6937C177.001 23.7018 177.537 24.8676 177.978 26.1908C178.419 27.5771 178.671 28.2702 178.734 28.2702C178.86 28.2702 179.427 27.7661 180.436 26.7579C181.444 25.7497 182.578 25.2456 183.838 25.2456C185.035 25.2456 185.981 25.4347 186.674 25.8128C187.367 26.1908 188.407 27.0415 189.793 28.3647C190.99 29.562 191.778 30.1606 192.156 30.1606H192.25C192.439 29.7195 192.597 28.6483 192.723 26.947C192.912 25.3087 193.258 24.1429 193.763 23.4498C194.267 22.6937 195.117 22.1896 196.315 21.9375C197.197 21.7485 198.047 22.0005 198.867 22.6937C199.623 23.2608 200.001 23.8909 200.001 24.584C200.001 24.7731 199.938 25.4977 199.812 26.7579C199.371 31.1688 198.331 34.2249 196.693 35.9262C195.117 37.3755 193.574 38.1001 192.061 38.1001C190.234 38.1001 188.407 37.1865 186.579 35.3591C185.256 34.0358 184.5 33.5633 184.311 33.9413C183.996 34.6975 183.366 35.4851 182.42 36.3043C181.538 37.1234 180.719 37.596 179.963 37.7221C179.711 37.7851 179.396 37.8166 179.018 37.8166C177.568 37.8166 176.277 37.1865 175.142 35.9262C174.071 34.603 172.937 32.4605 171.74 29.499C170.732 26.8525 170.228 25.2141 170.228 24.584C170.228 23.8279 170.669 23.1032 171.551 22.4101Z" fill="#1C1C1E"/>
<path d="M157.229 26.6636C156.788 26.0335 155.465 25.7184 153.259 25.7184C152.566 25.7184 152.156 25.7814 152.03 25.9075C151.841 26.0965 151.747 26.4746 151.747 27.0417C151.747 28.3019 151.967 29.1526 152.408 29.5937C152.85 29.9087 153.291 30.0663 153.732 30.0663C154.551 30.0663 155.37 29.7827 156.189 29.2156C157.008 28.5855 157.418 27.9554 157.418 27.3252C157.418 27.1362 157.355 26.9157 157.229 26.6636ZM147.021 21.087C148.218 19.7008 149.573 18.6611 151.085 17.9679C152.598 17.2748 153.858 16.9282 154.866 16.9282C155.685 16.9282 156.284 17.1488 156.662 17.5899C157.04 18.0939 157.859 18.6611 159.119 19.2912C162.648 21.0555 164.412 23.6705 164.412 27.1362C164.412 28.3334 164.129 29.5937 163.562 30.9169C162.553 33.2484 160.915 34.9497 158.647 36.0209C157.26 36.714 155.78 37.0606 154.204 37.0606C151.621 37.0606 149.352 36.1469 147.399 34.3196C145.509 32.4922 144.563 30.2238 144.563 27.5143C144.563 26.7581 144.658 26.002 144.847 25.2458C145.162 23.8596 145.887 22.4733 147.021 21.087Z" fill="#1C1C1E"/>
<path d="M120.14 19.3857C120.833 18.9447 121.463 18.7241 122.03 18.7241C122.597 18.7241 123.227 19.0077 123.921 19.5748C124.677 20.1419 125.433 20.2679 126.189 19.9529C126.882 19.7008 127.827 19.5748 129.025 19.5748C130.537 19.5748 131.671 19.7638 132.427 20.1419C135.074 21.5282 136.933 24.9938 138.004 30.5389C138.382 32.4923 138.571 34.0361 138.571 35.1703C138.571 36.7456 138.13 37.8483 137.248 38.4784C136.554 39.0456 135.798 39.3291 134.979 39.3291C133.971 39.3291 133.215 38.9195 132.711 38.1004C132.207 37.2182 131.703 35.4224 131.198 32.7128C130.568 28.7431 129.907 26.7582 129.214 26.7582C128.52 26.7582 128.048 28.7746 127.796 32.8073C127.67 35.3908 127.229 36.9661 126.473 37.5333C125.905 38.0374 125.181 38.2894 124.299 38.2894C123.29 38.2894 122.471 37.9743 121.841 37.3442C121.085 36.6511 120.266 33.9731 119.384 29.3102C118.754 25.9705 118.438 23.6391 118.438 22.3158C118.438 20.9926 119.006 20.0159 120.14 19.3857Z" fill="#1C1C1E"/>
<path d="M79.6895 17.5899C80.1936 17.1488 80.9813 16.9282 82.0525 16.9282C82.9347 16.9282 83.5648 17.1173 83.9429 17.4953C84.1949 17.7474 85.2346 17.8734 87.062 17.8734H87.9126C89.1099 17.8734 90.055 18.0624 90.7482 18.4405C91.5043 18.7556 92.418 19.4172 93.4892 20.4254L95.1905 22.2212L97.0809 19.9528C98.7822 17.9994 100.547 17.0227 102.374 17.0227C104.39 17.0227 106.281 18.0939 108.045 20.2364C109.053 21.3706 110.03 23.1664 110.975 25.6239C111.983 28.0814 112.487 30.0032 112.487 31.3895C112.487 32.3977 112.141 33.2484 111.448 33.9415C110.818 34.5716 110.03 34.8867 109.085 34.8867C108.518 34.8867 107.919 34.7292 107.289 34.4141C106.659 34.099 105.966 32.6813 105.209 30.1608C104.075 26.317 103.225 24.3952 102.657 24.3952C101.964 24.3952 101.177 26.128 100.295 29.5937C99.8534 31.232 99.4438 32.3662 99.0658 32.9963C98.7507 33.6264 98.2466 34.099 97.5535 34.4141C96.7973 34.6662 96.2932 34.7922 96.0412 34.7922C94.7179 34.7922 93.3317 33.3114 91.8824 30.3498C90.3701 27.3252 89.3304 25.8129 88.7633 25.8129C88.5742 25.8129 88.3852 25.9075 88.1962 26.0965C87.8811 26.4116 87.7236 26.9787 87.7236 27.7978C87.7236 28.743 87.7551 29.5622 87.8181 30.2553C87.9441 31.6416 88.0071 32.4292 88.0071 32.6183C88.0071 33.4374 87.7551 34.1936 87.251 34.8867C86.6839 35.6428 85.7387 36.0209 84.4154 36.0209C83.2812 36.0209 82.4306 35.6743 81.8635 34.9812C81.4224 34.4771 80.8553 32.6813 80.1621 29.5937C79.532 26.4431 79.1224 23.702 78.9334 21.3706C78.8704 20.8035 78.8389 20.1418 78.8389 19.3857C78.8389 18.5665 79.1224 17.9679 79.6895 17.5899Z" fill="#1C1C1E"/>
<path d="M65.7455 26.6636C65.3044 26.0335 63.9812 25.7184 61.7758 25.7184C61.0826 25.7184 60.673 25.7814 60.547 25.9075C60.358 26.0965 60.2635 26.4746 60.2635 27.0417C60.2635 28.3019 60.484 29.1526 60.9251 29.5937C61.3662 29.9087 61.8073 30.0663 62.2484 30.0663C63.0675 30.0663 63.8867 29.7827 64.7058 29.2156C65.525 28.5855 65.9346 27.9554 65.9346 27.3252C65.9346 27.1362 65.8716 26.9157 65.7455 26.6636ZM55.5376 21.087C56.7348 19.7008 58.0895 18.6611 59.6018 17.9679C61.1141 17.2748 62.3744 16.9282 63.3826 16.9282C64.2017 16.9282 64.8003 17.1488 65.1784 17.5899C65.5565 18.0939 66.3756 18.6611 67.6359 19.2912C71.1646 21.0555 72.9289 23.6705 72.9289 27.1362C72.9289 28.3334 72.6454 29.5937 72.0783 30.9169C71.0701 33.2484 69.4317 34.9497 67.1633 36.0209C65.777 36.714 64.2962 37.0606 62.7209 37.0606C60.1374 37.0606 57.869 36.1469 55.9156 34.3196C54.0253 32.4922 53.0801 30.2238 53.0801 27.5143C53.0801 26.7581 53.1746 26.002 53.3636 25.2458C53.6787 23.8596 54.4033 22.4733 55.5376 21.087Z" fill="#1C1C1E"/>
<path d="M33.2191 20.3308C34.7314 19.4487 36.4642 19.0076 38.4176 19.0076C41.3162 19.0076 43.8682 20.0473 46.0736 22.1267C46.8297 22.8828 47.2078 23.6705 47.2078 24.4896C47.2078 25.2458 46.9243 26.0019 46.3571 26.7581C45.79 27.5142 44.9709 27.8923 43.8997 27.8923C43.0175 27.8923 42.1038 27.5772 41.1586 26.9471C40.4025 26.38 39.4258 26.0964 38.2286 26.0964C37.5985 26.0964 37.0313 26.191 36.5272 26.38C35.204 26.9471 34.5424 29.2471 34.5424 33.2798C34.5424 35.2962 34.4793 36.525 34.3533 36.966C34.2903 37.4071 33.9753 37.8482 33.4081 38.2893C32.589 38.9194 31.7698 39.2345 30.9507 39.2345C30.2575 39.2345 29.5959 38.9824 28.9658 38.4783C28.2096 37.8482 27.485 36.0209 26.7919 32.9963C26.1617 29.9717 25.8467 27.2307 25.8467 24.7732C25.8467 22.8828 26.0672 21.7171 26.5083 21.276C27.0124 20.7089 27.9261 20.4253 29.2493 20.4253C30.0055 20.4253 30.6041 20.5514 31.0452 20.8034C31.4233 21.0555 32.1479 20.8979 33.2191 20.3308Z" fill="#1C1C1E"/>
<path d="M12.6654 1.33277C13.7997 0.891684 15.375 0.671143 17.3914 0.671143C19.2187 0.671143 20.4475 0.891684 21.0776 1.33277C21.7707 1.77385 22.1173 2.65602 22.1173 3.97928C22.1173 5.05049 21.7077 5.93266 20.8885 6.62579C20.1324 7.25592 19.1242 7.57097 17.864 7.57097C16.7297 7.57097 15.6585 7.85453 14.6503 8.42164C13.6421 8.92573 13.012 9.58736 12.76 10.4065C12.5079 10.9106 12.3819 12.0763 12.3819 13.9037C12.3819 15.0379 12.4134 15.7311 12.4764 15.9831C12.6024 16.2352 12.9175 16.4242 13.4216 16.5502C14.9969 16.9283 15.7846 18.094 15.7846 20.0474C15.7846 21.0556 15.501 21.8432 14.9339 22.4103L14.0832 23.261L14.9339 28.365C15.501 31.5786 15.7846 33.8471 15.7846 35.1703C15.7846 36.2415 15.5955 37.0607 15.2174 37.6278C14.8394 38.1319 14.1462 38.5415 13.138 38.8565C12.886 38.9825 12.5079 39.0456 12.0038 39.0456C10.5545 39.0456 9.73538 38.573 9.54634 37.6278C9.04225 35.6114 8.60116 33.595 8.22309 31.5786C7.34092 27.4828 6.7423 25.2459 6.42724 24.8678C6.17519 24.6788 5.82863 24.5843 5.38754 24.5843H4.25332H3.87525C1.29175 24.5843 0 23.4816 0 21.2761C0 19.1967 1.16573 17.9995 3.49718 17.6844L5.29302 17.4954L5.57658 13.1476C5.76561 9.80791 6.39574 7.22441 7.46694 5.39705C8.60116 3.5697 10.334 2.21494 12.6654 1.33277Z" fill="#1C1C1E"/>
</svg>
