<svg width="24" height="24" viewBox="0 0 24 24" fill="none" xmlns="http://www.w3.org/2000/svg">
<path d="M12 10C14.2091 10 16 8.20914 16 6C16 3.79086 14.2091 2 12 2C9.79086 2 8 3.79086 8 6C8 8.20914 9.79086 10 12 10Z" fill="#FEE987"/>
<path fill-rule="evenodd" clip-rule="evenodd" d="M13.513 21.487C14.025 22 14.85 22 16.5 22C18.15 22 18.975 22 19.487 21.487C20 20.975 20 20.15 20 18.5C20 16.85 20 16.025 19.487 15.513C18.975 15 18.15 15 16.5 15C14.85 15 14.025 15 13.513 15.513C13 16.025 13 16.85 13 18.5C13 20.15 13 20.975 13.513 21.487ZM15.917 17.917H14.944C14.7894 17.917 14.6411 17.9784 14.5318 18.0878C14.4224 18.1971 14.361 18.3454 14.361 18.5C14.361 18.6546 14.4224 18.8029 14.5318 18.9122C14.6411 19.0216 14.7894 19.083 14.944 19.083H18.056C18.2106 19.083 18.3589 19.0216 18.4682 18.9122C18.5776 18.8029 18.639 18.6546 18.639 18.5C18.639 18.3454 18.5776 18.1971 18.4682 18.0878C18.3589 17.9784 18.2106 17.917 18.056 17.917H15.917Z" fill="#FEE987"/>
<path opacity="0.5" d="M18.095 15.031C17.67 15 17.149 15 16.5 15C14.85 15 14.025 15 13.513 15.513C13 16.025 13 16.85 13 18.5C13 19.666 13 20.42 13.181 20.943C12.797 20.981 12.4033 21 12 21C8.134 21 5 19.21 5 17C5 14.79 8.134 13 12 13C14.613 13 16.892 13.818 18.095 15.031Z" fill="#FEE987"/>
</svg>
