<svg width="24" height="24" viewBox="0 0 24 24" fill="none" xmlns="http://www.w3.org/2000/svg">
<path fill-rule="evenodd" clip-rule="evenodd" d="M20.75 5C20.75 5.19891 20.671 5.38968 20.5303 5.53033C20.3897 5.67098 20.1989 5.75 20 5.75H4C3.80109 5.75 3.61032 5.67098 3.46967 5.53033C3.32902 5.38968 3.25 5.19891 3.25 5C3.25 4.80109 3.32902 4.61032 3.46967 4.46967C3.61032 4.32902 3.80109 4.25 4 4.25H20C20.1989 4.25 20.3897 4.32902 20.5303 4.46967C20.671 4.61032 20.75 4.80109 20.75 5ZM20.75 12C20.75 12.1989 20.671 12.3897 20.5303 12.5303C20.3897 12.671 20.1989 12.75 20 12.75H4C3.80109 12.75 3.61032 12.671 3.46967 12.5303C3.32902 12.3897 3.25 12.1989 3.25 12C3.25 11.8011 3.32902 11.6103 3.46967 11.4697C3.61032 11.329 3.80109 11.25 4 11.25H20C20.1989 11.25 20.3897 11.329 20.5303 11.4697C20.671 11.6103 20.75 11.8011 20.75 12ZM20.75 19C20.75 19.1989 20.671 19.3897 20.5303 19.5303C20.3897 19.671 20.1989 19.75 20 19.75H4C3.80109 19.75 3.61032 19.671 3.46967 19.5303C3.32902 19.3897 3.25 19.1989 3.25 19C3.25 18.8011 3.32902 18.6103 3.46967 18.4697C3.61032 18.329 3.80109 18.25 4 18.25H20C20.1989 18.25 20.3897 18.329 20.5303 18.4697C20.671 18.6103 20.75 18.8011 20.75 19Z" fill="#1C1C1E"/>
</svg>
