<svg width="20" height="20" viewBox="0 0 20 20" fill="none" xmlns="http://www.w3.org/2000/svg">
<path d="M8.96276 5.14004L14.8544 11.0325L8.87693 17.0109C8.60024 17.2876 8.23503 17.4581 7.84526 17.4925L7.69859 17.4984H3.33776C3.13041 17.4984 2.93035 17.4218 2.77595 17.2834C2.62155 17.145 2.52368 16.9545 2.50109 16.7484L2.49609 16.6567V12.2959C2.49619 11.9046 2.63396 11.5258 2.88526 11.2259L2.98526 11.1175L8.96276 5.14004ZM11.5794 2.52338C11.8744 2.22842 12.2692 2.05477 12.6859 2.03672C13.1026 2.01867 13.5109 2.15753 13.8303 2.42588L13.9361 2.52338L17.4719 6.05921C17.7667 6.35409 17.9402 6.74873 17.9582 7.16525C17.9763 7.58177 17.8375 7.98994 17.5694 8.30921L17.4719 8.41588L16.0336 9.85421L10.1419 3.96171L11.5794 2.52338Z" fill="#D9D9DC"/>
</svg>
