<svg width="16" height="16" viewBox="0 0 16 16" fill="none" xmlns="http://www.w3.org/2000/svg">
<path fill-rule="evenodd" clip-rule="evenodd" d="M5.67458 2.95326C5.7753 2.86713 5.90609 2.8245 6.03823 2.83475C6.17036 2.845 6.29302 2.90729 6.37924 3.00793L10.3792 7.6746C10.4569 7.76521 10.4996 7.8806 10.4996 7.99993C10.4996 8.11926 10.4569 8.23465 10.3792 8.32526L6.37924 12.9919C6.29159 13.0877 6.17015 13.1455 6.04059 13.1533C5.91103 13.1612 5.78351 13.1183 5.68499 13.0338C5.58647 12.9493 5.52467 12.8298 5.51265 12.7006C5.50063 12.5713 5.53933 12.4425 5.62058 12.3413L9.34124 7.99993L5.62058 3.6586C5.53428 3.55805 5.49143 3.42735 5.50143 3.29523C5.51143 3.1631 5.57346 3.04035 5.67391 2.95393" fill="#E4E5EA"/>
</svg>