<svg width="24" height="24" viewBox="0 0 24 24" fill="none" xmlns="http://www.w3.org/2000/svg">
<path fill-rule="evenodd" clip-rule="evenodd" d="M11.5739 4.25472C10.6128 4.25472 9.661 4.44404 8.77299 4.81186C7.88499 5.17969 7.07812 5.71882 6.39847 6.39847C5.71882 7.07812 5.17969 7.88499 4.81186 8.77299C4.44404 9.661 4.25472 10.6128 4.25472 11.5739C4.25472 12.5351 4.44404 13.4869 4.81186 14.3749C5.17969 15.2629 5.71882 16.0697 6.39847 16.7494C7.07812 17.4291 7.88499 17.9682 8.77299 18.336C9.661 18.7038 10.6128 18.8931 11.5739 18.8931C13.5151 18.8931 15.3768 18.122 16.7494 16.7494C18.122 15.3768 18.8931 13.5151 18.8931 11.5739C18.8931 9.63276 18.122 7.77109 16.7494 6.39847C15.3768 5.02585 13.5151 4.25472 11.5739 4.25472ZM3 11.5739C3 6.83945 6.83945 3 11.5739 3C16.3084 3 20.1479 6.83945 20.1479 11.5739C20.1479 13.7153 19.3624 15.6744 18.0642 17.1767L20.8003 19.9137C20.862 19.9711 20.9114 20.0403 20.9457 20.1173C20.98 20.1943 20.9984 20.2773 20.9999 20.3616C21.0014 20.4458 20.9859 20.5295 20.9543 20.6076C20.9228 20.6857 20.8758 20.7567 20.8162 20.8162C20.7567 20.8758 20.6857 20.9228 20.6076 20.9543C20.5295 20.9859 20.4458 21.0014 20.3616 20.9999C20.2773 20.9984 20.1943 20.98 20.1173 20.9457C20.0403 20.9114 19.9711 20.862 19.9137 20.8003L17.1767 18.0642C15.6215 19.4117 13.6317 20.1517 11.5739 20.1479C6.83945 20.1479 3 16.3084 3 11.5739Z" fill="#1C1C1E"/>
</svg>