<svg width="24" height="24" viewBox="0 0 24 24" fill="none" xmlns="http://www.w3.org/2000/svg">
<path fill-rule="evenodd" clip-rule="evenodd" d="M14.9998 5.50036C14.9997 4.6887 15.2817 3.90224 15.7975 3.27559C16.3134 2.64894 17.031 2.22105 17.8275 2.06516C18.6241 1.90928 19.4501 2.03508 20.1641 2.42104C20.8781 2.80701 21.4358 3.42913 21.7417 4.18094C22.0476 4.93275 22.0827 5.76751 21.8409 6.54234C21.5992 7.31717 21.0957 7.9839 20.4166 8.42843C19.7375 8.87295 18.925 9.06763 18.1182 8.97914C17.3114 8.89066 16.5604 8.52451 15.9938 7.94336L11.6698 10.2104C11.8828 10.7654 11.9998 11.3704 11.9998 12.0004C12.0004 12.6122 11.8886 13.219 11.6698 13.7904L15.9938 16.0574C16.581 15.4558 17.3652 15.0857 18.2029 15.0147C19.0406 14.9438 19.8758 15.1767 20.5559 15.6709C21.236 16.1652 21.7154 16.8877 21.9066 17.7063C22.0977 18.525 21.9879 19.3851 21.597 20.1295C21.2061 20.8738 20.5604 21.4525 19.778 21.7599C18.9955 22.0673 18.1285 22.0827 17.3355 21.8034C16.5426 21.5242 15.8767 20.9688 15.4595 20.2389C15.0424 19.509 14.9019 18.6533 15.0638 17.8284L10.5888 15.4824C9.89568 16.1968 9.00515 16.6881 8.03118 16.8934C7.05721 17.0986 6.04413 17.0086 5.12167 16.6346C4.19921 16.2607 3.40935 15.62 2.85322 14.7945C2.29709 13.9689 2 12.9962 2 12.0009C2 11.0055 2.29709 10.0328 2.85322 9.20726C3.40935 8.38175 4.19921 7.741 5.12167 7.36708C6.04413 6.99316 7.05721 6.90306 8.03118 7.10834C9.00515 7.31362 9.89568 7.80493 10.5888 8.51936L15.0638 6.17236C15.021 5.95092 14.9995 5.72589 14.9998 5.50036Z" fill="white"/>
</svg>