<svg width="25" height="24" viewBox="0 0 25 24" fill="none" xmlns="http://www.w3.org/2000/svg">
<path fill-rule="evenodd" clip-rule="evenodd" d="M14.303 5.33301C14.303 3.49301 15.803 2.00001 17.651 2.00001C18.0898 1.99883 18.5245 2.08412 18.9303 2.251C19.3361 2.41788 19.7051 2.66309 20.0161 2.97262C20.3271 3.28214 20.5741 3.64991 20.7429 4.05492C20.9117 4.45992 20.9991 4.89423 21 5.33301C21 7.17401 19.5 8.66701 17.651 8.66701C17.2076 8.66734 16.7686 8.57964 16.3593 8.40901C15.9501 8.23838 15.5788 7.98822 15.267 7.67301L10.632 10.829C10.7608 11.472 10.6975 12.1387 10.45 12.746L15.532 16.086C16.1307 15.5981 16.8797 15.3321 17.652 15.333C18.0908 15.332 18.5255 15.4174 18.9312 15.5844C19.337 15.7514 19.7059 15.9967 20.0168 16.3063C20.3277 16.6159 20.5746 16.9838 20.7433 17.3888C20.912 17.7939 20.9992 18.2282 21 18.667C21 20.507 19.5 22 17.651 22C17.2123 22.0011 16.7777 21.9157 16.372 21.7487C15.9663 21.5818 15.5975 21.3366 15.2866 21.0271C14.9757 20.7175 14.7288 20.3498 14.56 19.9449C14.3913 19.5399 14.3039 19.1057 14.303 18.667C14.3022 18.1996 14.4007 17.7374 14.592 17.311L9.55 14C8.93922 14.5306 8.15706 14.8222 7.348 14.821C6.90922 14.8221 6.47453 14.7366 6.06877 14.5696C5.66301 14.4026 5.29413 14.1573 4.98321 13.8477C4.67229 13.5381 4.42543 13.1702 4.25673 12.7652C4.08802 12.3601 4.00079 11.9258 4 11.487C4.00092 11.0483 4.08825 10.6141 4.25701 10.2092C4.42578 9.80421 4.67266 9.43648 4.98356 9.12697C5.29447 8.81746 5.6633 8.57223 6.069 8.40529C6.47469 8.23834 6.9093 8.15296 7.348 8.15401C8.412 8.15401 9.358 8.64701 9.971 9.41501L14.464 6.35601C14.3568 6.02561 14.3025 5.68036 14.303 5.33301Z" fill="white"/>
</svg>
