<svg width="37" height="36" viewBox="0 0 37 36" fill="none" xmlns="http://www.w3.org/2000/svg">
<path opacity="0.5" d="M3.16406 10.425C3.16406 9.1005 3.16406 8.439 3.26906 7.887C3.4929 6.70176 4.06877 5.6115 4.92154 4.75846C5.77431 3.90542 6.86439 3.32921 8.04956 3.105C8.60306 3 9.26606 3 10.5891 3C11.1681 3 11.4591 3 11.7381 3.0255C12.9396 3.13835 14.0792 3.61092 15.0081 4.3815C15.2241 4.56 15.4281 4.764 15.8391 5.175L16.6641 6C17.8881 7.224 18.5001 7.836 19.2321 8.2425C19.6344 8.46674 20.0612 8.64391 20.5041 8.7705C21.3111 9 22.1766 9 23.9061 9H24.4671C28.4151 9 30.3906 9 31.6731 10.155C31.7921 10.26 31.9041 10.372 32.0091 10.491C33.1641 11.7735 33.1641 13.749 33.1641 17.697V21C33.1641 26.6565 33.1641 29.4855 31.4061 31.242C29.6481 32.9985 26.8206 33 21.1641 33H15.1641C9.50756 33 6.67856 33 4.92206 31.242C3.16556 29.484 3.16406 26.6565 3.16406 21V10.425Z" fill="#FEC7C6"/>
<path d="M30.1625 9.357C30.1625 8.91 30.155 8.6445 30.125 8.412C29.9955 7.43002 29.5456 6.51822 28.8451 5.81797C28.1445 5.11773 27.2326 4.66817 26.2505 4.539C25.958 4.5 25.61 4.5 24.9125 4.5H15.1445C15.3185 4.656 15.515 4.851 15.8375 5.175L16.6625 6C17.8865 7.224 18.4985 7.836 19.2305 8.2425C19.6333 8.46685 20.0607 8.64402 20.504 8.7705C21.3095 9 22.175 9 23.906 9H24.4655C27.1355 9 28.901 9 30.1625 9.357Z" fill="#FEC7C6"/>
<path fill-rule="evenodd" clip-rule="evenodd" d="M18.5391 15C18.5391 14.7016 18.6576 14.4155 18.8686 14.2045C19.0795 13.9935 19.3657 13.875 19.6641 13.875H27.1641C27.4624 13.875 27.7486 13.9935 27.9596 14.2045C28.1705 14.4155 28.2891 14.7016 28.2891 15C28.2891 15.2984 28.1705 15.5845 27.9596 15.7955C27.7486 16.0065 27.4624 16.125 27.1641 16.125H19.6641C19.3657 16.125 19.0795 16.0065 18.8686 15.7955C18.6576 15.5845 18.5391 15.2984 18.5391 15Z" fill="#FEC7C6"/>
</svg>
