<svg width="24" height="25" viewBox="0 0 24 25" fill="none" xmlns="http://www.w3.org/2000/svg">
<path fill-rule="evenodd" clip-rule="evenodd" d="M14.28 2.47656C14.6998 2.47667 15.1088 2.60885 15.4493 2.85437C15.7898 3.09989 16.0444 3.44631 16.177 3.84456L16.72 5.47656H20C20.2652 5.47656 20.5196 5.58192 20.7071 5.76946C20.8946 5.95699 21 6.21135 21 6.47656C21 6.74178 20.8946 6.99613 20.7071 7.18367C20.5196 7.37121 20.2652 7.47656 20 7.47656L19.997 7.54756L19.13 19.6906C19.0759 20.4472 18.7372 21.1552 18.182 21.6721C17.6269 22.189 16.8965 22.4765 16.138 22.4766H7.862C7.10346 22.4765 6.37311 22.189 5.81797 21.6721C5.26283 21.1552 4.92411 20.4472 4.87 19.6906L4.003 7.54656C4.00119 7.52327 4.00019 7.49992 4 7.47656C3.73478 7.47656 3.48043 7.37121 3.29289 7.18367C3.10536 6.99613 3 6.74178 3 6.47656C3 6.21135 3.10536 5.95699 3.29289 5.76946C3.48043 5.58192 3.73478 5.47656 4 5.47656H7.28L7.823 3.84456C7.9557 3.44615 8.21043 3.09961 8.5511 2.85408C8.89176 2.60854 9.30107 2.47646 9.721 2.47656H14.28ZM9 10.4766C8.75507 10.4766 8.51866 10.5665 8.33563 10.7293C8.15259 10.892 8.03566 11.1163 8.007 11.3596L8 11.4766V17.4766C8.00028 17.7314 8.09788 17.9766 8.27285 18.1619C8.44782 18.3473 8.68695 18.4588 8.94139 18.4737C9.19584 18.4887 9.44638 18.4059 9.64183 18.2423C9.83729 18.0787 9.9629 17.8467 9.993 17.5936L10 17.4766V11.4766C10 11.2113 9.89464 10.957 9.70711 10.7695C9.51957 10.5819 9.26522 10.4766 9 10.4766ZM15 10.4766C14.7348 10.4766 14.4804 10.5819 14.2929 10.7695C14.1054 10.957 14 11.2113 14 11.4766V17.4766C14 17.7418 14.1054 17.9961 14.2929 18.1837C14.4804 18.3712 14.7348 18.4766 15 18.4766C15.2652 18.4766 15.5196 18.3712 15.7071 18.1837C15.8946 17.9961 16 17.7418 16 17.4766V11.4766C16 11.2113 15.8946 10.957 15.7071 10.7695C15.5196 10.5819 15.2652 10.4766 15 10.4766ZM14.28 4.47656H9.72L9.387 5.47656H14.613L14.28 4.47656Z" fill="#E4E5EA"/>
</svg>
